HIERARCHY
ROOT Hips
{
	OFFSET 0.000000 89.005402 0.000000
	CHANNELS 6 Xposition Yposition Zposition Xrotation Yrotation Zrotation
	JOINT Spine
	{
		OFFSET 0.116900 10.681000 0.373400
		CHANNELS 3 Xrotation Yrotation Zrotation
		JOINT Spine1
		{
			OFFSET 0.000000 13.840401 0.053500
			CHANNELS 3 Xrotation Yrotation Zrotation
			JOINT Spine2
			{
				OFFSET 0.000000 14.712700 -0.366200
				CHANNELS 3 Xrotation Yrotation Zrotation
				JOINT Neck
				{
					OFFSET 0.000000 35.415497 -3.314200
					CHANNELS 3 Xrotation Yrotation Zrotation
					JOINT Head
					{
						OFFSET 0.000000 16.899200 1.218300
						CHANNELS 3 Xrotation Yrotation Zrotation
						JOINT HeadTop_End
						{
							OFFSET 0.000000 22.206207 2.192500
							CHANNELS 3 Xrotation Yrotation Zrotation
							End Site
							{
								OFFSET 0.000000 22.314178 0.000000
							}
						}
					}
				}
				JOINT LeftShoulder
				{
					OFFSET 12.896400 26.716293 -4.548400
					CHANNELS 3 Xrotation Yrotation Zrotation
					JOINT LeftArm
					{
						OFFSET 19.027000 -4.857010 -1.718400
						CHANNELS 3 Xrotation Yrotation Zrotation
						JOINT LeftForeArm
						{
							OFFSET 24.179897 0.000000 0.000000
							CHANNELS 3 Xrotation Yrotation Zrotation
							JOINT LeftHand
							{
								OFFSET 27.156403 0.000000 0.000000
								CHANNELS 3 Xrotation Yrotation Zrotation
								JOINT LeftHandIndex1
								{
									OFFSET 16.441200 0.000000 0.000000
									CHANNELS 3 Xrotation Yrotation Zrotation
									JOINT LeftHandIndex2
									{
										OFFSET 4.821899 0.000000 0.000000
										CHANNELS 3 Xrotation Yrotation Zrotation
										JOINT LeftHandIndex3
										{
											OFFSET 6.386497 0.000000 0.000000
											CHANNELS 3 Xrotation Yrotation Zrotation
											JOINT LeftHandIndex4
											{
												OFFSET 5.188988 0.000000 0.000000
												CHANNELS 3 Xrotation Yrotation Zrotation
												End Site
												{
													OFFSET -0.178703 5.185913 0.000177
												}
											}
										}
									}
								}
								JOINT LeftHandThumb1
								{
									OFFSET 6.534897 -5.032593 5.900300
									CHANNELS 3 Xrotation Yrotation Zrotation
									JOINT LeftHandThumb2
									{
										OFFSET 3.818176 -2.204422 2.204423
										CHANNELS 3 Xrotation Yrotation Zrotation
										JOINT LeftHandThumb3
										{
											OFFSET 3.252098 -1.877594 1.877601
											CHANNELS 3 Xrotation Yrotation Zrotation
											JOINT LeftHandThumb4
											{
												OFFSET 5.251778 -3.032120 3.032117
												CHANNELS 3 Xrotation Yrotation Zrotation
												End Site
												{
													OFFSET 0.000023 6.780014 0.000000
												}
											}
										}
									}
								}
							}
						}
					}
				}
				JOINT RightShoulder
				{
					OFFSET -12.896300 26.716293 -4.548400
					CHANNELS 3 Xrotation Yrotation Zrotation
					JOINT RightArm
					{
						OFFSET -19.027000 -4.857010 -1.718400
						CHANNELS 3 Xrotation Yrotation Zrotation
						JOINT RightForeArm
						{
							OFFSET -24.179897 0.000000 0.000000
							CHANNELS 3 Xrotation Yrotation Zrotation
							JOINT RightHand
							{
								OFFSET -27.156403 0.000000 0.000000
								CHANNELS 3 Xrotation Yrotation Zrotation
								JOINT RightHandThumb1
								{
									OFFSET -6.591202 -4.852203 5.988100
									CHANNELS 3 Xrotation Yrotation Zrotation
									JOINT RightHandThumb2
									{
										OFFSET -3.818176 -2.204422 2.204423
										CHANNELS 3 Xrotation Yrotation Zrotation
										JOINT RightHandThumb3
										{
											OFFSET -3.252098 -1.877594 1.877601
											CHANNELS 3 Xrotation Yrotation Zrotation
											JOINT RightHandThumb4
											{
												OFFSET -5.251778 -3.032120 3.032117
												CHANNELS 3 Xrotation Yrotation Zrotation
												End Site
												{
													OFFSET -0.000023 6.780014 0.000000
												}
											}
										}
									}
								}
								JOINT RightHandIndex1
								{
									OFFSET -16.029404 0.000000 0.000000
									CHANNELS 3 Xrotation Yrotation Zrotation
									JOINT RightHandIndex2
									{
										OFFSET -5.213303 0.000000 0.000000
										CHANNELS 3 Xrotation Yrotation Zrotation
										JOINT RightHandIndex3
										{
											OFFSET -6.386528 0.000000 0.000000
											CHANNELS 3 Xrotation Yrotation Zrotation
											JOINT RightHandIndex4
											{
												OFFSET -5.189026 0.000000 0.000000
												CHANNELS 3 Xrotation Yrotation Zrotation
												End Site
												{
													OFFSET 0.236702 5.183624 0.001972
												}
											}
										}
									}
								}
							}
						}
					}
				}
			}
		}
	}
	JOINT LeftUpLeg
	{
		OFFSET 14.073000 -7.904099 -1.463000
		CHANNELS 3 Xrotation Yrotation Zrotation
		JOINT LeftLeg
		{
			OFFSET -0.109806 -34.073280 4.093200
			CHANNELS 3 Xrotation Yrotation Zrotation
			JOINT LeftFoot
			{
				OFFSET 0.109806 -29.899420 -6.319000
				CHANNELS 3 Xrotation Yrotation Zrotation
				JOINT LeftToeBase
				{
					OFFSET 1.551100 -14.988700 20.535801
					CHANNELS 3 Xrotation Yrotation Zrotation
					JOINT LeftToe_End
					{
						OFFSET 0.221200 0.570800 13.248301
						CHANNELS 3 Xrotation Yrotation Zrotation
						End Site
						{
							OFFSET 0.000000 13.262435 0.000000
						}
					}
				}
			}
		}
	}
	JOINT RightUpLeg
	{
		OFFSET -13.839300 -7.904099 -1.463000
		CHANNELS 3 Xrotation Yrotation Zrotation
		JOINT RightLeg
		{
			OFFSET 0.109694 -34.073219 4.093300
			CHANNELS 3 Xrotation Yrotation Zrotation
			JOINT RightFoot
			{
				OFFSET -0.109694 -29.899384 -6.319200
				CHANNELS 3 Xrotation Yrotation Zrotation
				JOINT RightToeBase
				{
					OFFSET -1.551100 -14.988700 20.535801
					CHANNELS 3 Xrotation Yrotation Zrotation
					JOINT RightToe_End
					{
						OFFSET -0.221200 0.570900 13.248299
						CHANNELS 3 Xrotation Yrotation Zrotation
						End Site
						{
							OFFSET 0.000000 13.262440 0.000000
						}
					}
				}
			}
		}
	}
}
MOTION
Frames: 7
Frame Time: 0.033333
0.064431 81.937035 1.753510 -4.957534 -4.239906 -1.856042 0.845250 -0.229758 2.114607 1.812207 -0.141771 -0.607765 1.812265 -0.137736 -0.607756 -0.712670 0.526714 -0.524982 -7.433989 2.126257 -0.486317 0.000001 -0.000000 -0.000000 0.924512 -5.820034 -10.979592 6.482644 10.357751 -69.236466 0.000002 -31.866073 0.000014 27.942488 -9.391630 -14.175860 0.294246 1.995106 -16.777571 0.294236 1.995098 -16.777571 0.073928 1.008334 -8.386227 -0.000003 -0.000000 0.000001 -10.161777 13.546811 12.374588 4.437035 15.074467 -2.342948 -0.353479 5.149731 1.077663 0.000001 -0.000001 -0.000001 1.514233 7.361419 9.757168 -11.386198 -11.296858 64.578974 0.000000 3.882340 0.000009 -3.784108 -1.179139 11.393113 8.602488 -20.511852 13.538864 8.375586 -14.862258 -4.030386 0.673867 -2.868458 -4.340400 -0.000000 0.000002 0.000000 2.355640 -5.219622 48.556126 6.879578 -6.947899 89.432516 1.998997 -4.882870 44.507176 0.000000 -0.000000 0.000001 -26.974466 3.062221 4.014351 66.595424 5.486805 0.553495 -6.928372 -0.188482 3.695526 -22.479776 1.822589 -7.276783 -0.000000 0.000000 0.000000 -7.671231 -6.296682 5.503661 35.437610 -9.957731 -0.380348 -23.258729 -2.642388 -1.027551 -0.000017 0.000007 0.000002 0.000000 0.000000 0.000000 
0.031838 82.127480 4.708256 -4.576250 -4.924525 -1.526705 0.877640 -0.117729 1.992008 1.884560 0.187042 -0.779642 1.883608 0.192852 -0.780266 -0.642491 0.581751 -0.505836 -7.697350 2.474196 -0.628325 0.000001 0.000000 0.000000 0.906500 -5.584111 -10.916665 7.961006 10.845773 -69.393103 0.000001 -33.485866 0.000018 26.020413 -9.086936 -14.901617 0.310128 2.047038 -17.228170 0.310136 2.047036 -17.228165 0.077937 1.035202 -8.611305 0.000001 0.000001 0.000004 -10.161778 13.546813 12.374585 4.437033 15.074470 -2.342946 -0.353480 5.149733 1.077664 0.000003 0.000000 0.000001 1.528528 7.381649 9.927572 -11.513912 -10.618741 64.541046 -0.000003 4.569571 0.000020 -3.899258 -1.226782 12.003821 8.602485 -20.511849 13.538863 8.375586 -14.862256 -4.030385 0.673866 -2.868455 -4.340401 -0.000000 -0.000001 -0.000000 2.355638 -5.219621 48.556126 6.879578 -6.947899 89.432516 1.998996 -4.882869 44.507183 0.000000 -0.000002 -0.000000 -28.707449 3.166722 2.857733 59.219878 4.723294 0.486734 -9.172101 -0.707595 5.541382 -13.179971 0.283307 -4.789973 0.000000 -0.000000 -0.000000 -4.569648 -6.912761 4.571463 33.900964 -9.826294 -0.322784 -25.051124 -1.020011 -0.053266 -0.000016 0.000003 0.000001 -0.000000 -0.000000 -0.000000 
0.024994 82.421036 7.641907 -4.302300 -5.106561 -0.896605 0.889607 -0.074549 1.676138 1.916195 0.389770 -0.933265 1.914588 0.396059 -0.934167 -0.599027 0.620265 -0.575795 -7.899123 2.574573 -0.586289 0.000000 0.000000 -0.000000 0.896382 -5.439088 -10.884929 8.886645 11.390573 -69.666352 0.000005 -34.169422 0.000010 25.260036 -8.918940 -15.311764 0.319962 2.078452 -17.501159 0.319969 2.078440 -17.501173 0.080424 1.051466 -8.747671 0.000000 -0.000000 -0.000002 -10.161774 13.546816 12.374588 4.437030 15.074465 -2.342945 -0.353482 5.149732 1.077663 -0.000002 0.000000 0.000001 1.533138 7.349619 10.030673 -11.658667 -9.947589 64.517339 0.000001 4.987935 0.000004 -3.656259 -0.827201 12.216753 8.602488 -20.511852 13.538864 8.375587 -14.862258 -4.030384 0.673867 -2.868456 -4.340400 -0.000001 -0.000001 0.000000 2.355641 -5.219622 48.556126 6.879579 -6.947899 89.432523 1.998996 -4.882870 44.507183 0.000000 -0.000001 -0.000000 -29.461294 3.186725 1.415240 48.558287 3.280220 0.314599 -6.515168 -0.790081 6.335438 -7.094445 0.033751 -1.676789 -0.000000 -0.000000 -0.000000 -1.048554 -7.666937 3.437176 31.567338 -9.111545 -0.286608 -26.428949 -0.288915 0.677161 -0.000010 0.000007 0.000001 -0.000000 -0.000000 0.000000 
0.029046 82.758102 10.493215 -4.032979 -4.994065 -0.122662 0.879328 -0.074592 1.187926 1.910368 0.496771 -1.042124 1.908377 0.502619 -1.043206 -0.591036 0.644925 -0.720260 -8.002906 2.458991 -0.363330 0.000001 0.000000 0.000000 0.891070 -5.350356 -10.870240 9.261358 11.998190 -70.063404 -0.000003 -33.967197 -0.000012 25.541696 -8.788153 -15.431086 0.321944 2.084749 -17.555999 0.321952 2.084741 -17.555996 0.080933 1.054725 -8.775067 0.000001 -0.000001 0.000000 -10.161778 13.546813 12.374583 4.437033 15.074468 -2.342947 -0.353481 5.149731 1.077662 -0.000002 0.000000 0.000001 1.533276 7.307820 10.081573 -11.819011 -9.352780 64.504238 -0.000000 5.158727 -0.000007 -3.105889 -0.138368 12.096055 8.602488 -20.511850 13.538862 8.375586 -14.862254 -4.030385 0.673866 -2.868456 -4.340400 -0.000000 0.000001 0.000000 2.355641 -5.219623 48.556122 6.879578 -6.947899 89.432516 1.998996 -4.882869 44.507176 0.000000 0.000000 -0.000000 -28.771438 3.221462 0.050226 34.441331 2.645515 0.180269 0.758199 -0.330621 5.412828 -1.169641 0.026963 -1.519720 0.000000 0.000000 -0.000000 2.679426 -8.363654 2.385960 28.478515 -8.063511 -0.283518 -27.300184 -0.419299 1.142379 -0.000030 -0.000002 -0.000001 0.000000 -0.000000 -0.000000 
0.095203 83.004219 13.258547 -3.790045 -4.826084 0.608423 0.841160 -0.095501 0.568410 1.861030 0.547258 -1.087825 1.858819 0.552189 -1.089158 -0.618546 0.658358 -0.898324 -7.992350 2.202587 -0.003622 0.000001 0.000000 0.000000 0.886393 -5.276711 -10.853562 9.159436 12.669135 -70.562862 0.000002 -33.029149 -0.000011 26.659084 -8.589826 -15.311904 0.315517 2.064307 -17.378252 0.315506 2.064310 -17.378254 0.079299 1.044137 -8.686283 -0.000004 -0.000002 -0.000003 -10.161774 13.546814 12.374585 4.437032 15.074470 -2.342946 -0.353475 5.149731 1.077664 -0.000002 -0.000001 -0.000001 1.534521 7.296982 10.105582 -11.981039 -8.903165 64.490503 0.000000 5.142485 0.000000 -2.346852 0.618675 11.741437 8.602488 -20.511850 13.538863 8.375588 -14.862259 -4.030386 0.673868 -2.868457 -4.340401 -0.000001 0.000001 -0.000000 2.355639 -5.219620 48.556126 6.879579 -6.947898 89.432523 1.998996 -4.882870 44.507183 -0.000001 -0.000000 0.000001 -28.138265 3.078573 -0.796030 23.650068 5.104290 0.236846 2.666402 0.129140 1.892797 -0.000010 0.000001 0.000000 -0.000000 0.000000 -0.000000 6.467570 -9.128919 1.434183 25.045513 -7.265016 -0.310461 -27.860208 -0.613354 1.753622 -0.000019 0.000017 0.000001 -0.000000 0.000000 0.000000 
0.265987 82.993172 16.122391 -3.624609 -4.854904 0.992478 0.769538 -0.088957 0.136658 1.751050 0.592888 -1.091744 1.748664 0.596695 -1.093448 -0.658114 0.663081 -1.024412 -7.909044 1.961727 0.363673 -0.000001 0.000000 0.000000 0.877729 -5.176714 -10.813057 8.840559 13.367174 -71.088390 -0.000010 -31.752037 -0.000034 28.187692 -8.300673 -15.075619 0.303683 2.026124 -17.046549 0.303669 2.026119 -17.046557 0.076310 1.024377 -8.520595 -0.000000 -0.000003 -0.000003 -10.161776 13.546816 12.374586 4.437033 15.074467 -2.342946 -0.353481 5.149732 1.077665 -0.000000 -0.000000 -0.000000 1.540949 7.330055 10.142822 -12.104869 -8.630509 64.458237 -0.000002 5.083942 0.000024 -1.583142 1.186574 11.324191 8.602488 -20.511852 13.538862 8.375588 -14.862256 -4.030384 0.673867 -2.868459 -4.340400 -0.000000 0.000001 -0.000000 2.355641 -5.219622 48.556129 6.879578 -6.947896 89.432523 1.998996 -4.882868 44.507183 0.000001 -0.000001 0.000000 -30.604141 3.088144 -2.448460 21.902065 10.190395 0.401633 -1.313732 1.004559 4.375942 -0.000011 0.000003 0.000000 0.000000 -0.000002 -0.000000 10.431841 -10.111803 0.748959 21.545267 -6.154928 -0.312725 -28.397678 -0.817627 2.384035 -0.000077 0.000002 0.000003 0.000000 -0.000002 -0.000000 
0.515786 82.645714 19.306213 -3.469289 -5.149571 1.052401 0.669800 -0.075377 -0.089028 1.566170 0.667156 -1.125927 1.563740 0.669540 -1.127948 -0.680780 0.659265 -1.017211 -7.814406 1.876749 0.614127 -0.000000 -0.000000 -0.000000 0.863374 -5.041102 -10.740027 8.582002 14.015683 -71.539879 -0.000001 -30.549657 -0.000007 29.727702 -8.004414 -14.841400 0.291384 1.985602 -16.695250 0.291378 1.985595 -16.695243 0.073204 1.003428 -8.345101 0.000002 -0.000001 0.000001 -10.161773 13.546814 12.374587 4.437030 15.074467 -2.342945 -0.353478 5.149732 1.077664 -0.000000 0.000000 0.000001 1.550449 7.364044 10.222376 -12.145231 -8.538340 64.399046 0.000000 5.109037 -0.000001 -0.989707 1.453013 10.959516 8.602487 -20.511849 13.538864 8.375587 -14.862258 -4.030384 0.673867 -2.868456 -4.340401 -0.000001 0.000001 -0.000000 2.355640 -5.219624 48.556126 6.879580 -6.947899 89.432523 1.998996 -4.882868 44.507183 -0.000001 -0.000000 0.000000 -32.417396 2.976767 -4.288509 22.529321 10.712843 0.768896 -5.745739 6.624910 7.551847 -0.000028 0.000008 0.000000 0.000001 -0.000000 0.000000 14.707622 -11.063522 0.284762 17.954942 -4.780296 -0.254090 -29.085158 -1.036898 3.084506 -0.000383 -0.000003 0.000001 0.000000 -0.000000 0.000000 
